# xmcd CD database file generated by Grip 3.2.0
# 
# Track frame offsets:
#       150
#       11378
#       27869
#       48683
#       61824
#       77765
#       95036
#       110618
#       133497
#       152085
#       165243
#       179864
# 
# Disc length: 2537 seconds
# 
# Revision: 1
# Processed by: cddbd v1.5.1PL0 Copyright (c) Steve Scherf et al.
# Submitted via: Grip 3.2.0
# 
DISCID=9f09e70c
DTITLE=Various Artist - all that i need
DYEAR=1999
DGENRE=Country
TTITLE0=love is the power
TTITLE1=moving
TTITLE2=standing right in front of you
TTITLE3=i know you know
TTITLE4=jesus knows
TTITLE5=abba father
TTITLE6=ready to go
TTITLE7=begins
TTITLE8=all that i need
TTITLE9=jesus is coming
TTITLE10=o wretched man
TTITLE11=praise be to the lord
EXTD=
EXTT0=
EXTT1=
EXTT2=
EXTT3=
EXTT4=
EXTT5=
EXTT6=
EXTT7=
EXTT8=
EXTT9=
EXTT10=
EXTT11=
PLAYORDER=
